# xmcd
#
# Track frame offsets:
#	150
#	18354
#	36433
#	53163
#	68187
#	85346
#	105368
#	123802
#	138655
#	157642
#	175474
#	194952
#	211523
#	226188
#	245635
#	260144
#	276778
#	291654
#	304080
#	333033
#
# Disc length: 4446 seconds
#
# Revision: 1
# Processed by: cddbd v1.5.2PL0 Copyright (c) Steve Scherf et al.
# Submitted via: audiograbber 1.83.01
#
DISCID=24115c14
DTITLE=Hill, Faith - TU087
DYEAR=1900
DGENRE=Karaoke
TTITLE0=Breathe
TTITLE1=I Can't Do That Anymore
TTITLE2=If My Heart Had Wings
TTITLE3=It Matters To Me
TTITLE4=It's Your Love w/ Tim McGraw
TTITLE5=Just To Hear You Say That You Love Me
TTITLE6=Let Me Let Go
TTITLE7=Let's Go To Vegas
TTITLE8=Let's Make Love w/Tim McGraw
TTITLE9=Piece Of My Heart
TTITLE10=Secret Of Life, The
TTITLE11=Someone Else's Dream
TTITLE12=Take Me As I Am
TTITLE13=That's How Love Moves
TTITLE14=Way You Love Me, The
TTITLE15=There You'll Be
TTITLE16=This Kiss
TTITLE17=Wild One
TTITLE18=You Can't Lose Me
TTITLE19=Data Track
EXTD=
EXTT0=
EXTT1=
EXTT2=
EXTT3=
EXTT4=
EXTT5=
EXTT6=
EXTT7=
EXTT8=
EXTT9=
EXTT10=
EXTT11=
EXTT12=
EXTT13=
EXTT14=
EXTT15=
EXTT16=
EXTT17=
EXTT18=
EXTT19=
PLAYORDER=
